<?xml version="1.0" standalone="no"?>
<!DOCTYPE svg PUBLIC "-//W3C//DTD SVG 20010904//EN"
 "http://www.w3.org/TR/2001/REC-SVG-20010904/DTD/svg10.dtd">
<svg version="1.0" xmlns="http://www.w3.org/2000/svg"
 width="260.000000pt" height="260.000000pt" viewBox="0 0 260.000000 260.000000"
 preserveAspectRatio="xMidYMid meet">
<metadata>
Created by potrace 1.11, written by Peter Selinger 2001-2013
</metadata>
<g transform="translate(0.000000,260.000000) scale(0.100000,-0.100000)"
fill="#000000" stroke="none">
<path d="M130 1519 c0 -216 2 -241 16 -235 9 3 440 6 958 6 l943 0 -1 233 -1
232 -957 3 -958 2 0 -241z m1900 6 l0 -215 -939 0 -939 0 -1 206 c-1 113 1
209 4 215 4 5 368 9 941 9 l934 0 0 -215z"/>
<path d="M1795 1621 c-3 -11 -15 -23 -26 -26 -25 -8 -50 -56 -44 -86 7 -35 39
-62 79 -64 85 -6 116 108 41 149 -11 6 -22 12 -24 14 -3 1 4 9 15 17 18 14 18
14 -8 15 -18 0 -29 -6 -33 -19z m36 -61 c38 -21 18 -80 -27 -80 -37 0 -55 47
-28 74 18 19 28 20 55 6z"/>
<path d="M1133 1602 c-32 -5 -64 -49 -61 -84 3 -39 38 -73 78 -76 46 -4 95 47
86 90 -11 55 -46 79 -103 70z m51 -48 c32 -32 10 -79 -35 -72 -32 5 -45 31
-31 62 13 29 43 34 66 10z"/>
<path d="M1457 1599 c-36 -10 -56 -36 -57 -71 0 -40 9 -57 41 -74 52 -26 114
1 121 55 8 61 -45 107 -105 90z m57 -50 c15 -22 11 -48 -8 -61 -41 -28 -88 20
-60 61 19 27 49 27 68 0z"/>
<path d="M316 1533 c26 -68 40 -93 54 -93 6 0 70 141 70 155 0 16 -39 1 -45
-17 -4 -13 -8 -25 -10 -28 -1 -3 -5 -13 -10 -24 -7 -16 -11 -12 -24 25 -12 31
-23 45 -39 47 l-22 3 26 -68z"/>
<path d="M460 1526 c0 -41 4 -77 8 -80 21 -13 31 13 29 79 -2 58 -5 70 -19 73
-16 3 -18 -5 -18 -72z"/>
<path d="M530 1525 c0 -41 3 -75 8 -76 10 -2 65 -2 80 0 6 0 12 8 12 16 0 10
-10 15 -30 15 -32 0 -32 0 -32 73 1 40 -2 47 -19 47 -17 0 -19 -7 -19 -75z"/>
<path d="M677 1546 c-14 -30 -28 -63 -31 -74 -10 -30 15 -40 32 -14 17 26 57
29 70 5 10 -17 42 -27 42 -13 0 23 -60 145 -73 148 -10 2 -24 -16 -40 -52z
m42 -35 c-15 -5 -22 6 -14 19 6 9 10 9 16 -1 5 -8 4 -15 -2 -18z"/>
<path d="M882 1526 c0 -53 3 -76 13 -80 21 -8 25 4 25 81 0 65 -2 73 -19 73
-16 0 -18 -9 -19 -74z"/>
<path d="M940 1586 c0 -7 9 -16 20 -19 17 -4 20 -14 20 -59 0 -60 4 -70 27
-61 11 4 14 20 12 62 -2 38 1 56 9 57 7 1 17 2 22 3 6 0 10 8 10 16 0 12 -13
15 -60 15 -44 0 -60 -4 -60 -14z"/>
<path d="M1262 1523 c2 -61 6 -78 18 -78 9 0 17 13 20 35 l6 35 16 -31 c10
-17 26 -34 38 -37 24 -6 25 5 4 38 -15 23 -15 25 0 31 23 9 21 61 -3 74 -11 5
-38 10 -61 10 l-41 0 3 -77z m76 30 c2 -8 -5 -13 -17 -13 -12 0 -21 6 -21 16
0 18 31 15 38 -3z"/>
<path d="M1590 1522 c0 -63 3 -79 15 -79 8 0 16 7 17 16 0 9 2 21 3 26 2 6 3
15 4 20 1 6 10 -4 20 -21 23 -37 37 -48 52 -39 7 5 5 15 -6 31 -14 22 -14 27
0 46 31 46 6 78 -61 78 l-44 0 0 -78z m71 33 c0 -5 -9 -11 -21 -13 -15 -3 -18
1 -14 13 7 17 35 17 35 0z"/>
<path d="M2085 1300 c-3 -5 1 -10 9 -10 9 0 16 5 16 10 0 6 -4 10 -9 10 -6 0
-13 -4 -16 -10z"/>
<path d="M2145 1300 c-3 -5 3 -10 15 -10 12 0 18 5 15 10 -3 6 -10 10 -15 10
-5 0 -12 -4 -15 -10z"/>
<path d="M2205 1300 c-3 -5 1 -10 9 -10 9 0 16 5 16 10 0 6 -4 10 -9 10 -6 0
-13 -4 -16 -10z"/>
<path d="M2260 1300 c0 -5 7 -10 15 -10 8 0 15 5 15 10 0 6 -7 10 -15 10 -8 0
-15 -4 -15 -10z"/>
<path d="M2325 1300 c-3 -5 1 -10 9 -10 9 0 16 5 16 10 0 6 -4 10 -9 10 -6 0
-13 -4 -16 -10z"/>
<path d="M2380 1300 c0 -5 7 -10 15 -10 8 0 15 5 15 10 0 6 -7 10 -15 10 -8 0
-15 -4 -15 -10z"/>
<path d="M2447 1304 c-8 -8 1 -24 14 -24 5 0 9 7 9 15 0 15 -12 20 -23 9z"/>
<path d="M130 1236 c0 -8 5 -18 10 -21 6 -3 10 3 10 14 0 12 -4 21 -10 21 -5
0 -10 -6 -10 -14z"/>
<path d="M2450 1229 c0 -11 5 -17 10 -14 6 3 10 13 10 21 0 8 -4 14 -10 14 -5
0 -10 -9 -10 -21z"/>
<path d="M130 1169 c0 -11 5 -17 10 -14 6 3 10 13 10 21 0 8 -4 14 -10 14 -5
0 -10 -9 -10 -21z"/>
<path d="M2450 1169 c0 -11 5 -17 10 -14 6 3 10 13 10 21 0 8 -4 14 -10 14 -5
0 -10 -9 -10 -21z"/>
<path d="M332 1143 c-67 -33 -51 -134 25 -149 21 -4 35 0 53 16 21 18 22 21 5
15 -47 -17 -66 -17 -85 0 -27 24 -25 69 2 95 22 20 32 21 72 5 14 -6 17 -4 14
5 -7 22 -53 29 -86 13z"/>
<path d="M1248 1130 c-37 -38 -35 -82 5 -116 33 -28 47 -29 86 -9 32 16 41 33
41 74 0 28 -31 70 -53 72 -7 0 -21 2 -31 4 -11 2 -31 -8 -48 -25z m99 -12 c22
-18 16 -75 -9 -92 -30 -21 -54 -20 -78 4 -42 42 -7 119 48 105 15 -4 33 -11
39 -17z"/>
<path d="M2203 1149 c-78 -29 -65 -142 19 -155 26 -5 39 -1 62 21 25 23 28 31
23 67 -7 53 -56 85 -104 67z m75 -37 c30 -39 2 -102 -46 -102 -47 0 -80 58
-54 96 23 34 75 38 100 6z"/>
<path d="M471 1079 c-31 -70 -35 -102 -7 -63 20 26 73 27 91 1 8 -12 17 -18
21 -15 7 8 -51 141 -64 146 -5 1 -23 -30 -41 -69z m62 -13 c1 -5 -10 -10 -25
-11 -33 -2 -33 -3 -12 38 l17 32 9 -25 c5 -14 10 -29 11 -34z"/>
<path d="M609 1148 c-4 -15 -3 -142 2 -149 10 -17 16 10 14 69 0 28 0 52 2 52
1 0 21 -27 43 -61 23 -33 47 -58 53 -56 13 4 18 147 5 147 -9 0 -10 -7 -10
-72 0 -27 -2 -48 -3 -48 -1 0 -21 27 -44 60 -35 50 -58 71 -62 58z"/>
<path d="M765 1140 c3 -5 15 -10 26 -10 17 0 19 -7 19 -64 0 -36 5 -68 10 -71
6 -4 10 20 10 64 0 72 4 78 43 72 4 0 7 4 7 9 0 6 -27 10 -61 10 -37 0 -58 -4
-54 -10z"/>
<path d="M909 1138 c-5 -49 -4 -116 2 -129 5 -10 19 -15 41 -13 18 1 39 3 46
3 7 1 11 5 8 10 -3 5 -22 7 -41 5 -19 -1 -36 1 -36 7 -6 42 -4 44 34 44 21 0
36 4 34 10 -2 5 -17 9 -33 9 -32 -2 -44 9 -37 36 4 13 13 16 44 14 22 -1 37 1
34 7 -9 14 -95 11 -96 -3z"/>
<path d="M1040 1069 c0 -44 4 -78 9 -75 11 7 11 156 0 156 -5 0 -9 -36 -9 -81z"/>
<path d="M1100 1075 c0 -43 4 -75 10 -75 6 0 10 16 10 35 0 42 14 45 34 7 16
-30 46 -60 46 -46 0 5 -9 22 -20 38 -19 30 -19 30 1 44 38 27 10 72 -45 72
l-36 0 0 -75z m76 43 c8 -13 -7 -27 -34 -33 -17 -3 -22 1 -22 19 0 12 3 25 6
28 7 8 43 -2 50 -14z"/>
<path d="M1491 1080 c-17 -38 -31 -72 -31 -75 0 -13 19 -3 24 13 8 25 73 23
92 -3 8 -10 16 -16 19 -13 7 7 -51 142 -63 146 -5 1 -23 -29 -41 -68z m69 -25
c0 -1 -13 -2 -30 -1 -35 1 -34 -1 -14 38 l16 32 14 -33 c8 -18 14 -35 14 -36z"/>
<path d="M1629 1133 c0 -10 -1 -45 -2 -78 l-1 -59 33 -1 c56 -1 91 41 60 72
-8 8 -8 17 0 31 15 28 -10 52 -55 52 -25 0 -34 -4 -35 -17z m72 -16 c-1 -4 -1
-11 -1 -17 0 -5 -13 -10 -30 -10 -33 0 -35 3 -20 30 8 14 16 17 31 12 11 -5
20 -11 20 -15z m5 -62 c9 -22 -14 -45 -40 -41 -19 3 -22 10 -17 46 2 16 51 12
57 -5z"/>
<path d="M1769 1138 c-3 -58 -1 -126 4 -134 3 -6 21 -9 39 -8 18 1 39 3 46 3
7 1 11 5 8 10 -3 5 -22 7 -41 5 -33 -3 -35 -1 -35 27 0 25 3 29 23 25 13 -2
30 0 38 5 8 5 11 9 7 10 -10 2 -44 6 -62 8 -8 1 -12 9 -9 24 4 20 10 23 39 21
19 -2 34 1 34 6 0 15 -90 12 -91 -2z"/>
<path d="M1900 1076 c0 -41 5 -78 10 -81 6 -4 10 10 10 34 0 47 16 47 42 1 9
-17 22 -30 29 -30 6 0 3 13 -9 31 -19 31 -19 32 -1 50 11 11 19 23 19 28 0 20
-33 41 -66 41 l-34 0 0 -74z m80 35 c0 -12 -23 -27 -40 -27 -19 1 -26 36 -9
47 14 8 49 -6 49 -20z"/>
<path d="M2020 1140 c8 -5 22 -10 31 -10 12 0 15 -12 14 -65 0 -36 2 -65 6
-65 12 0 15 23 13 78 -2 49 0 52 22 52 13 0 24 5 24 10 0 6 -27 10 -62 10 -45
0 -59 -3 -48 -10z"/>
<path d="M130 1105 c0 -15 4 -24 10 -20 6 3 10 12 10 20 0 8 -4 17 -10 20 -6
4 -10 -5 -10 -20z"/>
<path d="M2455 1117 c-4 -10 -5 -21 -1 -24 10 -10 18 4 13 24 -4 17 -4 17 -12
0z"/>
<path d="M130 1040 c0 -11 5 -20 10 -20 6 0 10 9 10 20 0 11 -4 20 -10 20 -5
0 -10 -9 -10 -20z"/>
<path d="M2450 1040 c0 -11 5 -20 10 -20 6 0 10 9 10 20 0 11 -4 20 -10 20 -5
0 -10 -9 -10 -20z"/>
<path d="M130 980 c0 -11 5 -20 10 -20 6 0 10 9 10 20 0 11 -4 20 -10 20 -5 0
-10 -9 -10 -20z"/>
<path d="M2450 981 c0 -12 5 -21 10 -21 6 0 10 6 10 14 0 8 -4 18 -10 21 -5 3
-10 -3 -10 -14z"/>
<path d="M130 916 c0 -8 5 -18 10 -21 6 -3 10 3 10 14 0 12 -4 21 -10 21 -5 0
-10 -6 -10 -14z"/>
<path d="M2450 909 c0 -11 5 -17 10 -14 6 3 10 13 10 21 0 8 -4 14 -10 14 -5
0 -10 -9 -10 -21z"/>
<path d="M130 855 c0 -8 7 -15 15 -15 8 0 15 4 15 9 0 5 -7 11 -15 15 -9 3
-15 0 -15 -9z"/>
<path d="M2453 863 c-18 -7 -16 -23 2 -23 8 0 15 7 15 15 0 8 -1 15 -2 14 -2
0 -9 -3 -15 -6z"/>
<path d="M190 850 c0 -5 7 -10 15 -10 8 0 15 5 15 10 0 6 -7 10 -15 10 -8 0
-15 -4 -15 -10z"/>
<path d="M255 850 c-3 -5 3 -10 14 -10 12 0 21 5 21 10 0 6 -6 10 -14 10 -8 0
-18 -4 -21 -10z"/>
<path d="M320 850 c0 -5 7 -10 15 -10 8 0 15 5 15 10 0 6 -7 10 -15 10 -8 0
-15 -4 -15 -10z"/>
<path d="M385 850 c-3 -5 3 -10 15 -10 12 0 18 5 15 10 -3 6 -10 10 -15 10 -5
0 -12 -4 -15 -10z"/>
<path d="M450 850 c0 -5 7 -10 15 -10 8 0 15 5 15 10 0 6 -7 10 -15 10 -8 0
-15 -4 -15 -10z"/>
<path d="M510 850 c0 -5 7 -10 15 -10 8 0 15 5 15 10 0 6 -7 10 -15 10 -8 0
-15 -4 -15 -10z"/>
<path d="M575 850 c-3 -5 3 -10 14 -10 12 0 21 5 21 10 0 6 -6 10 -14 10 -8 0
-18 -4 -21 -10z"/>
<path d="M640 850 c0 -5 7 -10 15 -10 8 0 15 5 15 10 0 6 -7 10 -15 10 -8 0
-15 -4 -15 -10z"/>
<path d="M705 850 c-3 -5 3 -10 15 -10 12 0 18 5 15 10 -3 6 -10 10 -15 10 -5
0 -12 -4 -15 -10z"/>
<path d="M770 850 c0 -5 7 -10 15 -10 8 0 15 5 15 10 0 6 -7 10 -15 10 -8 0
-15 -4 -15 -10z"/>
<path d="M835 850 c3 -5 13 -10 21 -10 8 0 14 5 14 10 0 6 -9 10 -21 10 -11 0
-17 -4 -14 -10z"/>
<path d="M900 850 c0 -5 7 -10 15 -10 8 0 15 5 15 10 0 6 -7 10 -15 10 -8 0
-15 -4 -15 -10z"/>
<path d="M965 850 c-3 -5 1 -10 9 -10 8 0 18 5 21 10 3 6 -1 10 -9 10 -8 0
-18 -4 -21 -10z"/>
<path d="M1030 850 c0 -5 7 -10 15 -10 8 0 15 5 15 10 0 6 -7 10 -15 10 -8 0
-15 -4 -15 -10z"/>
<path d="M1090 850 c0 -5 7 -10 15 -10 8 0 15 5 15 10 0 6 -7 10 -15 10 -8 0
-15 -4 -15 -10z"/>
<path d="M1155 850 c-3 -5 3 -10 14 -10 12 0 21 5 21 10 0 6 -6 10 -14 10 -8
0 -18 -4 -21 -10z"/>
<path d="M1220 850 c0 -5 7 -10 15 -10 8 0 15 5 15 10 0 6 -7 10 -15 10 -8 0
-15 -4 -15 -10z"/>
<path d="M1285 850 c-3 -5 3 -10 15 -10 12 0 18 5 15 10 -3 6 -10 10 -15 10
-5 0 -12 -4 -15 -10z"/>
<path d="M1350 850 c0 -5 7 -10 15 -10 8 0 15 5 15 10 0 6 -7 10 -15 10 -8 0
-15 -4 -15 -10z"/>
<path d="M1415 850 c-3 -5 3 -10 15 -10 12 0 18 5 15 10 -3 6 -10 10 -15 10
-5 0 -12 -4 -15 -10z"/>
<path d="M1480 850 c0 -5 7 -10 15 -10 8 0 15 5 15 10 0 6 -7 10 -15 10 -8 0
-15 -4 -15 -10z"/>
<path d="M1540 850 c0 -5 7 -10 15 -10 8 0 15 5 15 10 0 6 -7 10 -15 10 -8 0
-15 -4 -15 -10z"/>
<path d="M1605 850 c-3 -5 3 -10 15 -10 12 0 18 5 15 10 -3 6 -10 10 -15 10
-5 0 -12 -4 -15 -10z"/>
<path d="M1670 850 c0 -5 7 -10 15 -10 8 0 15 5 15 10 0 6 -7 10 -15 10 -8 0
-15 -4 -15 -10z"/>
<path d="M1735 850 c-3 -5 3 -10 14 -10 12 0 21 5 21 10 0 6 -6 10 -14 10 -8
0 -18 -4 -21 -10z"/>
<path d="M1800 850 c0 -5 7 -10 15 -10 8 0 15 5 15 10 0 6 -7 10 -15 10 -8 0
-15 -4 -15 -10z"/>
<path d="M1865 850 c3 -5 13 -10 21 -10 8 0 12 5 9 10 -3 6 -13 10 -21 10 -8
0 -12 -4 -9 -10z"/>
<path d="M1930 850 c0 -5 7 -10 15 -10 8 0 15 5 15 10 0 6 -7 10 -15 10 -8 0
-15 -4 -15 -10z"/>
<path d="M1990 850 c0 -5 9 -10 21 -10 11 0 17 5 14 10 -3 6 -13 10 -21 10 -8
0 -14 -4 -14 -10z"/>
<path d="M2055 850 c-3 -5 3 -10 14 -10 12 0 21 5 21 10 0 6 -6 10 -14 10 -8
0 -18 -4 -21 -10z"/>
<path d="M2120 850 c0 -5 7 -10 15 -10 8 0 15 5 15 10 0 6 -7 10 -15 10 -8 0
-15 -4 -15 -10z"/>
<path d="M2185 850 c-3 -5 3 -10 15 -10 12 0 18 5 15 10 -3 6 -10 10 -15 10
-5 0 -12 -4 -15 -10z"/>
<path d="M2250 850 c0 -5 7 -10 15 -10 8 0 15 5 15 10 0 6 -7 10 -15 10 -8 0
-15 -4 -15 -10z"/>
<path d="M2310 850 c0 -5 9 -10 21 -10 11 0 17 5 14 10 -3 6 -13 10 -21 10 -8
0 -14 -4 -14 -10z"/>
<path d="M2380 850 c0 -5 7 -10 15 -10 8 0 15 5 15 10 0 6 -7 10 -15 10 -8 0
-15 -4 -15 -10z"/>
</g>
</svg>
